<svg xmlns:mydata="http://www.w3.org/2000/svg" mydata:contrastcolor="edf1ea" mydata:template="Contrast" mydata:presentation="2.5" mydata:layouttype="undefined" mydata:specialfontid="undefined" mydata:id1="727" mydata:id2="027" mydata:companyname="ReservaIT" mydata:companytagline="" version="1.1" xmlns="http://www.w3.org/2000/svg" xmlns:xlink="http://www.w3.org/1999/xlink" viewBox="0 0 550 470" class="main" width="550"  height="470" ><g fill="#FFFFFF" fill-rule="none" stroke="none" stroke-width="1" stroke-linecap="butt" stroke-linejoin="miter" stroke-miterlimit="10" stroke-dasharray="" stroke-dashoffset="0" font-family="none" font-weight="none" font-size="none" text-anchor="none" style="mix-blend-mode: normal;"><g data-paper-data="{&quot;isGlobalGroup&quot;:true,&quot;bounds&quot;:{&quot;x&quot;:79.62119067367843,&quot;y&quot;:114.99999999999997,&quot;width&quot;:390.75761865264315,&quot;height&quot;:240.00000000000003}}" style="" fill="#FFFFFF"><g data-paper-data="{&quot;isPrimaryText&quot;:true}" fill="#FFFFFF" fill-rule="nonzero" style=""><path d="M114.93383,335.87026c1.36349,-0.60495 8.43489,-4.3098 8.43489,-10.32004c0,-7.6831 -4.8685,-12.68573 -38.23217,-12.68573v-0.00324h-5.51536v41.6144h5.51536v-13.70443c11.04424,1.57875 21.57467,-1.05385 25.11348,-2.19695c1.94085,0.5487 7.62902,5.33336 7.62902,10.56126v5.34012h5.37203v-5.34012c0,-7.37482 -6.17709,-13.16899 -8.31725,-13.26526zM85.13628,335.36294v-16.94009c20.12789,0 32.75683,0.44864 32.75683,7.12711c0,5.1876 -13.51892,11.95233 -32.75683,9.81299z" data-paper-data="{&quot;glyphName&quot;:&quot;R&quot;,&quot;glyphIndex&quot;:0,&quot;firstGlyphOfWord&quot;:true,&quot;word&quot;:1}" style="" fill="#FFFFFF"></path><path d="M169.94865,336.42545v-5.45668h-32.19786v-12.60136h32.18596v-5.3412h-37.6018v41.49243h37.6137v-5.46966h-32.19786v-12.62354z" data-paper-data="{&quot;glyphName&quot;:&quot;E&quot;,&quot;glyphIndex&quot;:1,&quot;word&quot;:1}" style="" fill="#FFFFFF"></path><path d="M199.19647,330.96174c-8.79861,-1.13201 -17.59777,-2.37002 -17.59777,-7.18254c0,-3.3606 7.82913,-5.68086 15.63663,-5.68086c6.11598,0 14.4262,2.05903 16.59205,5.70601l3.77732,-3.77543c-3.21727,-4.59915 -13.66846,-7.29612 -20.38236,-7.29612c-8.3424,0 -21.10926,2.72915 -21.10926,11.05181c0,10.72973 13.53866,11.051 22.35215,12.49292c8.52656,1.39513 16.6264,2.83056 16.6264,6.98405c0,3.59506 -9.3657,6.37559 -16.70212,6.37559c-6.54974,0 -15.13499,-2.27402 -16.54554,-6.16709l-3.71945,3.71945c2.79189,5.12405 14.10169,7.81047 20.17602,7.81047c9.84355,0 22.01195,-3.36628 22.01195,-11.74384c0.00054,-9.11042 -12.01156,-11.12321 -21.11603,-12.29442z" data-paper-data="{&quot;glyphName&quot;:&quot;S&quot;,&quot;glyphIndex&quot;:2,&quot;word&quot;:1}" style="" fill="#FFFFFF"></path><path d="M265.7977,336.42545v-5.45668h-32.19786v-12.60136h32.18596v-5.3412h-37.6018v41.49243h37.6137v-5.46966h-32.19786v-12.62354z" data-paper-data="{&quot;glyphName&quot;:&quot;E&quot;,&quot;glyphIndex&quot;:3,&quot;word&quot;:1}" style="" fill="#FFFFFF"></path><path d="M310.03903,335.87026c1.36349,-0.60495 8.43489,-4.3098 8.43489,-10.32004c0,-7.6831 -4.8685,-12.68573 -38.23217,-12.68573v-0.00324h-5.51536v41.6144h5.51536v-13.70443c11.04424,1.57875 21.57467,-1.05385 25.11348,-2.19695c1.94085,0.5487 7.62902,5.33336 7.62902,10.56126v5.34012h5.37203v-5.34012c0,-7.37482 -6.17709,-13.16899 -8.31725,-13.26526zM280.24148,335.36294v-16.94009c20.12789,0 32.75683,0.44864 32.75683,7.12711c0,5.1876 -13.51892,11.95233 -32.75683,9.81299z" data-paper-data="{&quot;glyphName&quot;:&quot;R&quot;,&quot;glyphIndex&quot;:4,&quot;word&quot;:1}" style="" fill="#FFFFFF"></path><path d="M360.88202,312.72468l-16.59476,35.39295l-16.59476,-35.39295h-5.97373l19.58162,41.76286h5.97346l19.58162,-41.76286z" data-paper-data="{&quot;glyphName&quot;:&quot;V&quot;,&quot;glyphIndex&quot;:5,&quot;word&quot;:1}" style="" fill="#FFFFFF"></path><path d="M408.44793,354.48754l-19.58162,-41.76286h-5.97346l-19.58162,41.76286h5.97346l1.19204,-2.54228c2.40869,-4.61754 7.74665,-7.87619 15.3297,-7.87619c7.36021,0 13.2109,3.30083 15.58444,8.10794l1.08333,2.3108h5.97373zM385.69853,338.62591c-3.62345,0 -6.93132,0.60522 -9.90358,1.97682l10.08477,-21.50814l10.26811,21.89945c-3.18157,-1.58524 -6.72011,-2.36813 -10.4493,-2.36813z" data-paper-data="{&quot;glyphName&quot;:&quot;A&quot;,&quot;glyphIndex&quot;:6,&quot;word&quot;:1}" style="" fill="#FFFFFF"></path><path d="M420.14782,354.45915v-41.49973h-5.40854v41.49973z" data-paper-data="{&quot;glyphName&quot;:&quot;I&quot;,&quot;glyphIndex&quot;:7,&quot;word&quot;:1}" style="" fill="#FFFFFF"></path><path d="M449.01561,312.70873l-1.08171,-0.00054l-21.3632,-0.01136l-0.00297,5.40854l19.16922,0.01028l-0.01947,36.36676l5.47128,0.00297l0.0192,-36.36703l19.16787,0.01028l0.00297,-5.40854z" data-paper-data="{&quot;glyphName&quot;:&quot;T&quot;,&quot;glyphIndex&quot;:8,&quot;lastGlyphOfWord&quot;:true,&quot;word&quot;:1}" style="" fill="#FFFFFF"></path></g><g data-paper-data="{&quot;fillRule&quot;:&quot;nonzero&quot;,&quot;fillRuleOriginal&quot;:&quot;nonzero&quot;,&quot;isIcon&quot;:true,&quot;iconStyle&quot;:&quot;standalone&quot;,&quot;selectedEffects&quot;:{&quot;container&quot;:&quot;&quot;,&quot;transformation&quot;:&quot;&quot;,&quot;pattern&quot;:&quot;&quot;},&quot;bounds&quot;:{&quot;x&quot;:212.57549856639247,&quot;y&quot;:114.99999999999997,&quot;width&quot;:124.84900286721506,&quot;height&quot;:166.39333657793193},&quot;iconType&quot;:&quot;icon&quot;,&quot;isDetailed&quot;:false,&quot;source&quot;:&quot;inline&quot;,&quot;rawIconId&quot;:&quot;2e4f2a58-5da9-4f15-938c-ea594baa7e8c&quot;,&quot;suitableAsStandaloneIcon&quot;:true}" fill-rule="evenodd" style="" fill="#FFFFFF"><g data-paper-data="{&quot;isPathIcon&quot;:true}" style="" fill="#FFFFFF"><path d="M324.7434,227.82391l8.52707,13.55711c1.89535,3.06069 3.13436,6.26738 3.71703,9.62008c0.292,1.60401 0.437,3.13403 0.437,4.59204c0,1.89502 -0.145,3.64403 -0.437,5.24704c-0.72901,3.35303 -2.07702,6.48705 -4.04503,9.40208c-1.96802,2.91602 -4.48204,5.32104 -7.54306,7.21606c-4.22703,2.62402 -8.89207,3.93503 -13.99411,3.93503c-4.51904,0 -8.67307,-1.05601 -12.4631,-3.17003c-3.79003,-2.11402 -6.92406,-5.06504 -9.40208,-8.85507l-15.52412,-24.05219h-6.55905c-1.89502,0 -2.84302,0.94801 -2.84302,2.84302v7.87106c0,3.49803 -0.69201,6.77805 -2.07702,9.83908c-1.38501,3.06102 -3.28003,5.75805 -5.68505,8.09006c-2.40502,2.33302 -5.17504,4.15503 -8.30907,5.46704c-3.13403,1.31201 -6.45005,1.96702 -9.94808,1.96702c-3.64403,0 -7.03306,-0.69201 -10.16708,-2.07702c-3.13403,-1.38401 -5.86705,-3.24303 -8.20007,-5.57504c-2.33202,-2.33302 -4.19103,-5.06604 -5.57504,-8.20007c-1.38501,-3.13403 -2.07702,-6.52305 -2.07702,-10.16708v-114.35492c0,-3.49803 0.69201,-6.85106 2.07702,-10.05808c1.38401,-3.20603 3.24303,-5.97605 5.57504,-8.30807c2.33302,-2.33302 5.06604,-4.19103 8.20007,-5.57604c3.13403,-1.38501 6.52305,-2.07702 10.16708,-2.07702h52.25742c1.16601,0 2.29602,0.073 3.38903,0.219c1.09301,0.145 2.22302,0.364 3.38903,0.65601c5.39404,1.16601 10.38608,3.13403 14.97812,5.90305c4.59104,2.77002 8.60007,6.19505 12.0261,10.27708c3.42503,4.08103 6.08505,8.70907 7.98006,13.88411c1.89535,5.17471 2.84302,10.60442 2.84302,16.28913v37.3893c-0.438,10.49608 -4.00903,19.89816 -10.71409,28.20623zM266.58193,130.19612c1.60335,-3.42536 3.7897,-6.37705 6.55905,-8.85507h-34.54628c-5.39404,0 -9.98508,1.93102 -13.77511,5.79405c-3.79003,3.86303 -5.68505,8.49107 -5.68505,13.88411h-0.219v28.86223c2.47802,-2.91502 5.39404,-5.17504 8.74607,-6.77805c3.35303,-1.60301 6.99706,-2.40502 10.93309,-2.40502h5.90305c5.54004,0 10.20408,-1.89502 13.99411,-5.68505c3.79003,-3.79003 5.68505,-8.45507 5.68505,-13.99411c0,-3.79003 0.80201,-7.39706 2.40502,-10.82309zM296.31817,122.21506c-2.18602,-0.437 -4.44604,-0.65601 -6.77805,-0.65601c-5.24738,0.146 -9.69308,2.11402 -13.33711,5.90405c-3.64503,3.79003 -5.46704,8.30907 -5.46704,13.55611c0,3.93603 -0.80101,7.58006 -2.40502,10.93309c-1.60301,3.35203 -3.86303,6.26805 -6.77805,8.74607h29.29924c5.39304,0 10.02208,-1.89502 13.88411,-5.68505c3.86303,-3.79003 5.79505,-8.45507 5.79505,-13.99411c0,-4.51804 -1.34901,-8.49107 -4.04503,-11.9161c-2.69702,-3.42603 -6.08605,-5.72105 -10.16808,-6.88806zM320.47937,185.84357c3.28003,0.87401 6.15905,2.11302 8.63707,3.71703v-27.33222c0,-6.26805 -1.27601,-12.0251 -3.82703,-17.27314c-2.55002,-5.24804 -6.01205,-9.76608 -10.38508,-13.55611c1.31101,3.06102 1.96702,6.26805 1.96702,9.62008c0,3.64403 -0.69201,7.03406 -2.07702,10.16808c-1.38501,3.13403 -3.24303,5.90305 -5.57504,8.30807c-2.33302,2.40502 -5.10204,4.30003 -8.30907,5.68505c-3.20703,1.38501 -6.56005,2.07702 -10.05808,2.07702h-0.87401c0.583,4.81104 2.69602,8.89207 6.34005,12.2451c3.64503,3.35203 8.01806,5.02904 13.11911,5.02904c4.08203,0 7.76206,0.437 11.04209,1.31201zM251.27681,174.69148c3.64403,-2.04002 5.90305,-4.51804 6.77805,-7.43406h-19.46016c-5.39404,0 -9.98508,1.89502 -13.77511,5.68505c-3.79003,3.79003 -5.68505,8.38207 -5.68505,13.77511c2.33202,-2.76902 5.17504,-4.95604 8.52707,-6.55905c3.35303,-1.60401 6.99706,-2.40602 10.93309,-2.40602c4.81004,0 9.03707,-1.02001 12.6821,-3.06102zM267.45694,167.25742c-1.89502,0 -2.84302,0.87501 -2.84302,2.62402v20.55317c0,1.89502 0.94801,2.84302 2.84302,2.84302h13.11911c1.74901,0 2.62302,-0.94801 2.62302,-2.84302v-20.55317c0,-1.74901 -0.87401,-2.62402 -2.62302,-2.62402zM227.55262,195.68265c3.28003,-1.60335 6.81505,-2.40502 10.60509,-2.40502h20.55317c-0.292,-1.16701 -0.438,-2.11402 -0.438,-2.84302v-12.6821c-0.583,0.584 -1.16601,0.94801 -1.74901,1.09401c-4.95604,3.64403 -10.93242,5.46604 -17.92914,5.46604c-5.10204,0 -9.51108,1.71301 -13.22811,5.13804c-3.71803,3.42603 -5.79505,7.68906 -6.23205,12.7911c2.33202,-2.76902 5.13804,-4.95604 8.41807,-6.55905zM298.50519,188.46659c-3.35303,-1.60301 -6.26805,-3.79003 -8.74607,-6.55905v8.52707c0,0.72901 -0.146,1.67601 -0.437,2.84302h11.36909c6.26805,0 11.69809,1.96768 16.29013,5.90305c4.59104,3.93603 7.47006,8.89207 8.63607,14.86812c1.89502,-4.51804 2.98902,-9.32907 3.28003,-14.43112c0,-2.04002 -1.85801,-4.00803 -5.57504,-5.90305c-3.71736,-1.89535 -8.34573,-2.84302 -13.88511,-2.84302c-3.93503,0 -7.58006,-0.80101 -10.93209,-2.40502zM238.59471,238.975c8.74607,0 15.52412,1.96802 20.33416,5.90405c1.45801,-3.64403 4.08203,-5.61205 7.87206,-5.90405c-2.77002,-2.47802 -4.95604,-5.39304 -6.56005,-8.74607c-1.60301,-3.35203 -2.40502,-6.99606 -2.40502,-10.93209c0,-2.62402 -0.474,-5.10204 -1.42101,-7.43406c-0.94801,-2.33202 -2.26002,-4.37304 -3.93603,-6.12205c-1.67601,-1.75001 -3.60803,-3.17103 -5.79405,-4.26403c-2.18702,-1.09301 -4.59204,-1.71301 -7.21606,-1.85901h-1.09301c-5.39338,0.146 -9.94841,2.11402 -13.66511,5.90405c-3.71703,3.79003 -5.57604,8.38207 -5.57604,13.77511c0,5.39304 1.89502,10.02108 5.68505,13.88411c3.79003,3.86303 8.38107,5.79405 13.77511,5.79405zM297.19318,205.30273c-3.79003,-3.79003 -8.45507,-5.68505 -13.99411,-5.68505h-27.98722c2.77002,2.47902 4.95604,5.39404 6.56005,8.74607c1.60301,3.35303 2.40502,6.99706 2.40502,10.93309c0,5.39304 1.89502,9.98508 5.68505,13.77511c3.79003,3.79003 8.38173,5.75771 13.77511,5.90305c5.39338,-0.14533 9.94841,-2.11302 13.66511,-5.90305c3.71703,-3.79003 5.57604,-8.38207 5.57604,-13.77511c0,-5.53904 -1.89502,-10.20408 -5.68505,-13.99411zM309.43728,229.46392c0.87501,-0.073 1.67701,-0.109 2.40502,-0.109h0.219c2.04102,0 4.30003,0.364 6.77805,1.09301l-2.18602,-3.28003l1.74901,-1.74901c0.87501,-2.18602 1.31201,-4.44604 1.31201,-6.77805c0,-5.24804 -1.85901,-9.73008 -5.57604,-13.44711c-3.71703,-3.71703 -8.19907,-5.57604 -13.44711,-5.57604h-0.218c2.76902,2.47902 4.95604,5.39404 6.55905,8.74607c1.60401,3.35303 2.40502,6.99706 2.40502,10.93309c0,3.49803 -0.80101,6.99706 -2.40502,10.49508c0.72901,-0.146 1.53101,-0.255 2.40502,-0.328zM312.0613,275.05329c3.64403,0 6.92406,-1.02101 9.83908,-3.06102c3.06102,-1.89502 5.32104,-4.37304 6.77905,-7.43506c-3.64503,4.37304 -8.52807,6.56005 -14.65012,6.56005c-4.95604,0 -9.14707,-1.71301 -12.5721,-5.13804c-3.42603,-3.42603 -5.13904,-7.61706 -5.13904,-12.5731c0,-3.64403 1.23901,-6.70505 3.71703,-9.18307c2.47802,-2.47802 5.46704,-3.71703 8.96507,-3.71703c3.64403,0 6.70505,1.23901 9.18307,3.71703c2.47802,2.47802 3.71703,5.53904 3.71703,9.18307c0,2.62402 -0.94701,4.84704 -2.84202,6.66905c-1.89502,1.82201 -4.15403,2.73302 -6.77805,2.73302c-1.02101,0 -1.82201,0.438 -2.40502,1.31201c1.31201,0.437 2.69602,0.65601 4.15403,0.65601c3.79003,0 6.96006,-1.27501 9.51108,-3.82603c2.55102,-2.55102 3.82703,-5.72205 3.82703,-9.51208c0,-4.37304 -1.49401,-8.09006 -4.48304,-11.15109c-2.98802,-3.06069 -6.66872,-4.59104 -11.04209,-4.59104c-5.39304,0 -9.98508,1.93102 -13.77411,5.79405c-3.79003,3.86303 -5.68505,8.49107 -5.68505,13.88411c0,5.53904 1.89502,10.20408 5.68505,13.99411c3.78903,3.79003 8.45407,5.68505 13.99311,5.68505zM224.7106,269.36824c3.8627,3.79003 8.49073,5.68505 13.88411,5.68505c5.39304,0 9.98508,-1.85901 13.77511,-5.57604c3.79003,-3.71703 5.75805,-8.27207 5.90305,-13.66611c0,-2.91502 -1.89502,-5.39304 -5.68505,-7.43406c-3.79003,-2.04002 -8.45407,-3.06102 -13.99311,-3.06102c-3.93603,0 -7.58039,-0.80167 -10.93309,-2.40502c-3.35269,-1.60335 -6.26805,-3.8627 -8.74607,-6.77805v19.24115c0,5.53904 1.93202,10.20408 5.79505,13.99411zM286.26009,252.3131c0.146,-2.47802 0.80201,-4.95604 1.96802,-7.43406c-0.72901,0.146 -1.45701,0.255 -2.18602,0.328c-0.72901,0.073 -1.45801,0.109 -2.18702,0.109h-0.65601c-0.72801,0 -1.31201,-0.073 -1.74901,-0.218zM302.65922,253.40611c0,2.33302 0.72901,4.59204 2.18702,6.77805c2.04068,-2.47802 4.5187,-3.71703 7.43406,-3.71703c0.87401,0 1.64001,-0.291 2.29602,-0.87401c0.65601,-0.583 0.98401,-1.31201 0.98401,-2.18702c0,-1.74868 -0.65601,-3.27903 -1.96802,-4.59104c-1.31201,-1.31201 -2.84302,-1.96802 -4.59204,-1.96802c-1.74901,0 -3.24303,0.65601 -4.48204,1.96802c-1.23934,1.31201 -1.85901,2.84236 -1.85901,4.59104z" fill="#FFFFFF" style=""></path><path d="M228.42763,130.63313c-2.84302,2.84302 -4.26403,6.30505 -4.26403,10.38608v17.93014l4.15403,-1.53101c3.49903,-1.16601 6.92406,-1.74901 10.27708,-1.74901h5.90305c4.08203,0 7.54406,-1.42101 10.38608,-4.26403c2.84302,-2.84202 4.26403,-6.30405 4.26403,-10.38608c0,-3.35203 0.583,-6.77805 1.74901,-10.27608l1.53101,-4.37304h-23.83319c-3.93603,0 -7.32506,1.42101 -10.16708,4.26303zM305.50225,141.01921c0,-3.06102 -0.98401,-5.90305 -2.95202,-8.52707c-1.96802,-2.62402 -4.41004,-4.37304 -7.32506,-5.24804l-0.219,-0.218h-0.218c-0.72901,-0.146 -1.53101,-0.255 -2.40502,-0.328c-0.87501,-0.073 -1.75001,-0.11 -2.62402,-0.11h-0.437c-3.79003,0.292 -6.99706,1.82301 -9.62108,4.59204c-2.62402,2.77002 -3.93603,6.04905 -3.93603,9.83908c0,3.49869 -0.65601,6.99739 -1.96802,10.49608l-1.53001,4.15403h18.58515c4.08203,0 7.54406,-1.42101 10.38608,-4.26403c2.84202,-2.84202 4.26403,-6.30405 4.26403,-10.38608zM282.10606,141.01921c0,-2.04002 0.72901,-3.86203 2.18702,-5.46604c1.45701,-1.60301 3.27903,-2.47802 5.46604,-2.62402c0.583,0 1.16601,0.037 1.74901,0.11c0.583,0.072 1.23901,0.182 1.96802,0.328c1.60301,0.583 2.91502,1.56701 3.93603,2.95102c1.02001,1.38501 1.53001,2.95202 1.53001,4.70104c0,2.33302 -0.80201,4.30003 -2.40502,5.90405c-1.60301,1.60301 -3.49803,2.40502 -5.68505,2.40502h-9.62008c0.291,-1.31201 0.51,-2.66002 0.65501,-4.04503c0.146,-1.38501 0.219,-2.80602 0.219,-4.26403zM230.50464,150.20328v-9.18407c0,-2.18602 0.80201,-4.08103 2.40502,-5.68505c1.60301,-1.60301 3.49803,-2.40502 5.68505,-2.40502h15.08712c-0.292,1.31201 -0.511,2.66102 -0.65601,4.04503c-0.146,1.38501 -0.219,2.73302 -0.219,4.04503c0,2.33302 -0.80201,4.30003 -2.40502,5.90405c-1.60401,1.60301 -3.57103,2.40502 -5.90405,2.40502h-5.90305c-1.31201,0 -2.66002,0.073 -4.04503,0.219c-1.38501,0.145 -2.73302,0.364 -4.04503,0.65601zM300.91021,170.53745l-5.24804,1.74901l4.15503,3.71703c2.76902,2.33302 5.97605,3.49903 9.62008,3.49903c1.89502,0 3.71703,0.109 5.46704,0.328c1.74901,0.218 3.49803,0.473 5.24704,0.76501l3.93603,0.87501v-19.24215c0,-0.72801 -0.037,-1.49401 -0.109,-2.29502c-0.073,-0.80201 -0.11,-1.56701 -0.11,-2.29602l-1.31201,-9.40208l-4.81004,8.30807c-3.93603,6.85106 -9.54808,11.51609 -16.83614,13.99411zM317.74634,173.81747c-2.47802,-0.438 -4.95604,-0.65601 -7.43406,-0.65601c1.31201,-0.87467 2.58735,-1.78568 3.82603,-2.73302c1.23934,-0.94734 2.44202,-2.00435 3.60803,-3.17103zM269.20595,219.29684c0,3.79003 1.27501,7.07006 3.82603,9.83908c2.55102,2.77002 5.72205,4.30003 9.51108,4.59204h0.438c0.72901,0 1.38501,-0.037 1.96802,-0.109c0.583,-0.073 1.23901,-0.11 1.96702,-0.11l0.219,-0.218c3.20703,-0.87501 5.79405,-2.58802 7.76206,-5.13904c1.96802,-2.55102 2.95202,-5.50204 2.95202,-8.85507c0,-4.08203 -1.42101,-7.54306 -4.26403,-10.38608c-2.84202,-2.84202 -6.30405,-4.26403 -10.38608,-4.26403h-17.27314l1.53101,4.15503c1.16601,3.79003 1.74901,7.28839 1.74901,10.49508zM252.80682,219.29684c0,-3.93603 -1.38501,-7.32506 -4.15403,-10.16708c-2.77002,-2.84302 -6.12205,-4.33703 -10.05808,-4.48304h-0.219c-3.93603,0.146 -7.28806,1.64001 -10.05808,4.48304c-2.76902,2.84202 -4.15403,6.23105 -4.15403,10.16708c0,4.08103 1.42101,7.54306 4.26403,10.38608c2.84202,2.84202 6.23105,4.26303 10.16708,4.26303h17.49214l-1.53101,-4.37304c-1.16601,-3.49803 -1.74901,-6.92306 -1.74901,-10.27608zM247.34078,227.3869h-8.74607c-2.18702,0 -4.08203,-0.80201 -5.68505,-2.40502c-1.60301,-1.60401 -2.40502,-3.49903 -2.40502,-5.68505c0,-2.18702 0.76501,-4.08203 2.29602,-5.68505c1.53001,-1.60301 3.38903,-2.47802 5.57504,-2.62402c2.18702,0.146 4.08203,1.02101 5.68505,2.62402c1.60401,1.60301 2.40502,3.49803 2.40502,5.68505c0,1.31201 0.073,2.66002 0.219,4.04503c0.146,1.38501 0.364,2.73302 0.65601,4.04503zM274.672,210.98777h8.52707c2.33302,0 4.30003,0.80201 5.90405,2.40502c1.60301,1.60401 2.40502,3.57203 2.40502,5.90405c0,1.74901 -0.547,3.35303 -1.64001,4.81004c-1.09301,1.45801 -2.51402,2.47802 -4.26303,3.06102c-0.438,0 -0.87501,0.037 -1.31201,0.11c-0.438,0.073 -0.87501,0.109 -1.31201,0.109c-2.04102,-0.292 -3.79003,-1.20301 -5.24804,-2.73302c-1.45801,-1.53101 -2.18602,-3.31603 -2.18602,-5.35704c0,-3.20669 -0.29167,-5.97638 -0.87501,-8.30907zM247.66878,252.0941c-2.40502,-1.16601 -5.43004,-1.74901 -9.07407,-1.74901h-14.43112v5.02904c0,4.08203 1.42101,7.54406 4.26403,10.38608c2.84202,2.84202 6.23105,4.26403 10.16708,4.26403c3.64403,0 6.81405,-1.13001 9.51108,-3.38903c2.69702,-2.26002 4.33703,-5.13904 4.92004,-8.63707l0.218,-1.53101l-0.65601,-1.09301c-0.87401,-1.02001 -2.51402,-2.11302 -4.91904,-3.28003zM238.59471,263.68319c-2.04102,0 -3.82703,-0.65601 -5.35704,-1.96802c-1.53101,-1.31201 -2.44202,-2.98802 -2.73302,-5.02904h8.09006c1.89502,0 3.46203,0.219 4.70104,0.65601c1.23901,0.437 2.22302,0.87501 2.95202,1.31201c-0.583,1.45801 -1.56701,2.66002 -2.95202,3.60803c-1.38501,0.94701 -2.95202,1.42101 -4.70104,1.42101z" fill="#FFFFFF" style=""></path></g></g></g></g></svg>